<svg width="56" height="56" viewBox="0 0 56 56" fill="none" xmlns="http://www.w3.org/2000/svg">
<g clip-path="url(#clip0)">
<path d="M11.6667 9.33325L3.5 13.9999L11.6667 18.6666V9.33325Z" fill="#E2FFDE"/>
<path d="M44.333 9.33325L52.4997 13.9999L44.333 18.6666V9.33325Z" fill="#43BF86"/>
<path d="M3.5 14L11.6667 18.6667L3.5 23.3333V14Z" fill="#43BF86"/>
<path d="M52.4997 14L44.333 18.6667L52.4997 23.3333V14Z" fill="#E2FFDE"/>
<path d="M11.6667 18.6667L3.5 23.3334L11.6667 28.0001V18.6667Z" fill="#5DD64B"/>
<path d="M44.333 18.6667L52.4997 23.3334L44.333 28.0001V18.6667Z" fill="#E2FFDE"/>
<path d="M3.5 23.3333L11.6667 27.9999L3.5 32.6666V23.3333Z" fill="#5DD64B"/>
<path d="M52.4997 23.3333L44.333 27.9999L52.4997 32.6666V23.3333Z" fill="#5DD64B"/>
<path d="M11.6667 28L3.5 32.6667L11.6667 37.3333V28Z" fill="#E2FFDE"/>
<path d="M44.333 28L52.4997 32.6667L44.333 37.3333V28Z" fill="#5DD64B"/>
<path d="M3.5 32.6667L11.6667 37.3334L3.5 42.0001V32.6667Z" fill="#E2FFDE"/>
<path d="M52.4997 32.6667L44.333 37.3334L52.4997 42.0001V32.6667Z" fill="#43BF86"/>
<path d="M11.6667 37.3333L3.5 41.9999L11.6667 46.6666V37.3333Z" fill="#43BF86"/>
<path d="M44.333 37.3333L52.4997 41.9999L44.333 46.6666V37.3333Z" fill="#E2FFDE"/>
<path d="M19.8337 4.66675L11.667 9.33341L19.8337 14.0001V4.66675Z" fill="#5DD64B"/>
<path d="M36.167 4.66675L44.3337 9.33341L36.167 14.0001V4.66675Z" fill="#5DD64B"/>
<path d="M11.667 9.33325L19.8337 13.9999L11.667 18.6666V9.33325Z" fill="#E2FFDE"/>
<path d="M44.3337 9.33325L36.167 13.9999L44.3337 18.6666V9.33325Z" fill="#5DD64B"/>
<path d="M19.8337 14L11.667 18.6667L19.8337 23.3333V14Z" fill="#E2FFDE"/>
<path d="M36.167 14L44.3337 18.6667L36.167 23.3333V14Z" fill="#E2FFDE"/>
<path d="M11.667 18.6667L19.8337 23.3334L11.667 28.0001V18.6667Z" fill="#E2FFDE"/>
<path d="M44.3337 18.6667L36.167 23.3334L44.3337 28.0001V18.6667Z" fill="#E2FFDE"/>
<path d="M19.8337 23.3333L11.667 27.9999L19.8337 32.6666V23.3333Z" fill="#E2FFDE"/>
<path d="M36.167 23.3333L44.3337 27.9999L36.167 32.6666V23.3333Z" fill="#E2FFDE"/>
<path d="M11.667 28L19.8337 32.6667L11.667 37.3333V28Z" fill="#E2FFDE"/>
<path d="M44.3337 28L36.167 32.6667L44.3337 37.3333V28Z" fill="#E2FFDE"/>
<path d="M19.8337 32.6667L11.667 37.3334L19.8337 42.0001V32.6667Z" fill="#E2FFDE"/>
<path d="M36.167 32.6667L44.3337 37.3334L36.167 42.0001V32.6667Z" fill="#E2FFDE"/>
<path d="M11.667 37.3333L19.8337 41.9999L11.667 46.6666V37.3333Z" fill="#5DD64B"/>
<path d="M44.3337 37.3333L36.167 41.9999L44.3337 46.6666V37.3333Z" fill="#E2FFDE"/>
<path d="M19.8337 42L11.667 46.6667L19.8337 51.3333V42Z" fill="#5DD64B"/>
<path d="M36.167 42L44.3337 46.6667L36.167 51.3333V42Z" fill="#5DD64B"/>
<path d="M27.9997 0L19.833 4.66667L27.9997 9.33333V0Z" fill="#43BF86"/>
<path d="M28 0L36.1667 4.66667L28 9.33333V0Z" fill="#E2FFDE"/>
<path d="M19.833 4.66675L27.9997 9.33341L19.833 14.0001V4.66675Z" fill="#5DD64B"/>
<path d="M36.1667 4.66675L28 9.33341L36.1667 14.0001V4.66675Z" fill="#E2FFDE"/>
<path d="M27.9997 9.33325L19.833 13.9999L27.9997 18.6666V9.33325Z" fill="#E2FFDE"/>
<path d="M28 9.33325L36.1667 13.9999L28 18.6666V9.33325Z" fill="#E2FFDE"/>
<path d="M19.833 14L27.9997 18.6667L19.833 23.3333V14Z" fill="#E2FFDE"/>
<path d="M36.1667 14L28 18.6667L36.1667 23.3333V14Z" fill="#E2FFDE"/>
<path d="M27.9997 18.6667L19.833 23.3334L27.9997 28.0001V18.6667Z" fill="#E2FFDE"/>
<path d="M28 18.6667L36.1667 23.3334L28 28.0001V18.6667Z" fill="#E2FFDE"/>
<path d="M19.833 23.3333L27.9997 27.9999L19.833 32.6666V23.3333Z" fill="#E2FFDE"/>
<path d="M36.1667 23.3333L28 27.9999L36.1667 32.6666V23.3333Z" fill="#E2FFDE"/>
<path d="M27.9997 28L19.833 32.6667L27.9997 37.3333V28Z" fill="#E2FFDE"/>
<path d="M28 28L36.1667 32.6667L28 37.3333V28Z" fill="#E2FFDE"/>
<path d="M19.833 32.6667L27.9997 37.3334L19.833 42.0001V32.6667Z" fill="#E2FFDE"/>
<path d="M36.1667 32.6667L28 37.3334L36.1667 42.0001V32.6667Z" fill="#E2FFDE"/>
<path d="M27.9997 37.3333L19.833 41.9999L27.9997 46.6666V37.3333Z" fill="#E2FFDE"/>
<path d="M28 37.3333L36.1667 41.9999L28 46.6666V37.3333Z" fill="#E2FFDE"/>
<path d="M19.833 42L27.9997 46.6667L19.833 51.3333V42Z" fill="#E2FFDE"/>
<path d="M36.1667 42L28 46.6667L36.1667 51.3333V42Z" fill="#5DD64B"/>
<path d="M27.9997 46.6667L19.833 51.3334L27.9997 56.0001V46.6667Z" fill="#E2FFDE"/>
<path d="M28 46.6667L36.1667 51.3334L28 56.0001V46.6667Z" fill="#43BF86"/>
</g>
<defs>
<clipPath id="clip0">
<rect width="56" height="56" fill="white"/>
</clipPath>
</defs>
</svg>
